
<svg width="984" height="901" viewBox="0 0 984 901" fill="none" xmlns="http://www.w3.org/2000/svg">
<g opacity="0.7">
<mask id="mask0_6_1437" style="mask-type:alpha" maskUnits="userSpaceOnUse" x="0" y="-83" width="984" height="984">
<rect x="7.92908" y="-83" width="975.497" height="975.497" transform="rotate(0.465718 7.92908 -83)" fill="url(#paint0_radial_6_1437)"/>
</mask>
<g mask="url(#mask0_6_1437)">
<path d="M-43.4624 -52.7167L10.5556 -82.2913L64.0856 -51.8425L63.598 8.14613L9.58007 37.7207L-43.95 7.27192L-43.4624 -52.7167Z" stroke="#1A1A1A" stroke-width="1.2"/>
<path d="M64.2912 -51.841L118.309 -81.4156L171.839 -50.9668L171.352 9.02186L117.334 38.5965L63.8036 8.14766L64.2912 -51.841Z" stroke="#1A1A1A" stroke-width="1.2"/>
<path d="M172.046 -50.965L226.064 -80.5396L279.594 -50.0908L279.106 9.89784L225.088 39.4724L171.558 9.02363L172.046 -50.965Z" stroke="#1A1A1A" stroke-width="1.2"/>
<path d="M279.799 -50.0893L333.817 -79.6639L387.347 -49.2151L386.86 10.7736L332.842 40.3482L279.312 9.89937L279.799 -50.0893Z" stroke="#1A1A1A" stroke-width="1.2"/>
<path d="M387.553 -49.2135L441.571 -78.7881L495.101 -48.3393L494.613 11.6493L440.595 41.2239L387.065 10.7751L387.553 -49.2135Z" stroke="#1A1A1A" stroke-width="1.2"/>
<path d="M495.306 -48.3376L549.324 -77.9122L602.854 -47.4634L602.367 12.5253L548.349 42.0999L494.819 11.6511L495.306 -48.3376Z" stroke="#1A1A1A" stroke-width="1.2"/>
<path d="M603.06 -47.4616L657.078 -77.0362L710.608 -46.5874L710.121 13.4013L656.103 42.9759L602.573 12.5271L603.06 -47.4616Z" stroke="#1A1A1A" stroke-width="1.2"/>
<path d="M710.814 -46.5861L764.832 -76.1607L818.362 -45.7119L817.874 14.2767L763.856 43.8514L710.326 13.4025L710.814 -46.5861Z" stroke="#1A1A1A" stroke-width="1.2"/>
<path d="M818.568 -45.7101L872.586 -75.2847L926.116 -44.8359L925.629 15.1527L871.611 44.7273L818.081 14.2785L818.568 -45.7101Z" stroke="#1A1A1A" stroke-width="1.2"/>
<path d="M926.322 -44.8339L980.34 -74.4085L1033.87 -43.9597L1033.38 16.0289L979.364 45.6036L925.834 15.1547L926.322 -44.8339Z" stroke="#1A1A1A" stroke-width="1.2"/>
<path d="M-98.6461 35.4459L-44.6281 5.87128L8.90191 36.3201L8.41429 96.3087L-45.6036 125.883L-99.1337 95.4345L-98.6461 35.4459Z" stroke="#1A1A1A" stroke-width="1.2"/>
<path d="M9.10747 36.3216L63.1254 6.74701L116.655 37.1958L116.168 97.1845L62.1499 126.759L8.61985 96.3103L9.10747 36.3216Z" stroke="#1A1A1A" stroke-width="1.2"/>
<path d="M116.862 37.1978L170.88 7.62323L224.41 38.072L223.922 98.0607L169.904 127.635L116.374 97.1865L116.862 37.1978Z" stroke="#1A1A1A" stroke-width="1.2"/>
<path d="M224.616 38.0733L278.633 8.49872L332.164 38.9475L331.676 98.9362L277.658 128.511L224.128 98.062L224.616 38.0733Z" stroke="#1A1A1A" stroke-width="1.2"/>
<path d="M332.369 38.9493L386.387 9.3747L439.917 39.8235L439.43 99.8121L385.412 129.387L331.882 98.9379L332.369 38.9493Z" stroke="#1A1A1A" stroke-width="1.2"/>
<path d="M440.123 39.8253L494.141 10.2507L547.671 40.6995L547.183 100.688L493.165 130.263L439.635 99.8139L440.123 39.8253Z" stroke="#1A1A1A" stroke-width="1.2"/>
<path d="M547.877 40.701L601.894 11.1264L655.424 41.5752L654.937 101.564L600.919 131.138L547.389 100.69L547.877 40.701Z" stroke="#1A1A1A" stroke-width="1.2"/>
<path d="M655.63 41.577L709.648 12.0024L763.178 42.4512L762.691 102.44L708.673 132.014L655.143 101.566L655.63 41.577Z" stroke="#1A1A1A" stroke-width="1.2"/>
<path d="M763.385 42.4527L817.403 12.8781L870.933 43.3269L870.445 103.316L816.427 132.89L762.897 102.441L763.385 42.4527Z" stroke="#1A1A1A" stroke-width="1.2"/>
<path d="M871.138 43.3287L925.156 13.7541L978.686 44.2029L978.198 104.192L924.181 133.766L870.65 103.317L871.138 43.3287Z" stroke="#1A1A1A" stroke-width="1.2"/>
<path d="M-46.0761 124.484L7.94182 94.9091L61.4719 125.358L60.9842 185.347L6.9663 214.921L-46.5637 184.472L-46.0761 124.484Z" stroke="#1A1A1A" stroke-width="1.2"/>
<path d="M61.6783 125.359L115.696 95.7849L169.226 126.234L168.739 186.222L114.721 215.797L61.1906 185.348L61.6783 125.359Z" stroke="#1A1A1A" stroke-width="1.2"/>
<path d="M169.432 126.235L223.45 96.6606L276.98 127.109L276.492 187.098L222.474 216.673L168.944 186.224L169.432 126.235Z" stroke="#1A1A1A" stroke-width="1.2"/>
<path d="M277.185 127.111L331.203 97.5368L384.733 127.986L384.246 187.974L330.228 217.549L276.698 187.1L277.185 127.111Z" stroke="#1A1A1A" stroke-width="1.2"/>
<path d="M384.939 127.987L438.957 98.4128L492.487 128.862L491.999 188.85L437.982 218.425L384.452 187.976L384.939 127.987Z" stroke="#1A1A1A" stroke-width="1.2"/>
<path d="M492.693 128.863L546.711 99.2885L600.241 129.737L599.753 189.726L545.735 219.301L492.205 188.852L492.693 128.863Z" stroke="#1A1A1A" stroke-width="1.2"/>
<path d="M600.446 129.739L654.464 100.164L707.994 130.613L707.507 190.602L653.489 220.177L599.959 189.728L600.446 129.739Z" stroke="#1A1A1A" stroke-width="1.2"/>
<path d="M708.201 130.615L762.219 101.04L815.749 131.489L815.261 191.478L761.243 221.052L707.713 190.603L708.201 130.615Z" stroke="#1A1A1A" stroke-width="1.2"/>
<path d="M815.954 131.491L869.972 101.916L923.502 132.365L923.015 192.354L868.997 221.928L815.467 191.479L815.954 131.491Z" stroke="#1A1A1A" stroke-width="1.2"/>
<path d="M-101.26 212.646L-47.2419 183.071L6.28814 213.52L5.80053 273.509L-48.2174 303.083L-101.747 272.634L-101.26 212.646Z" stroke="#1A1A1A" stroke-width="1.2"/>
<path d="M6.49455 213.522L60.5125 183.947L114.043 214.396L113.555 274.384L59.537 303.959L6.00693 273.51L6.49455 213.522Z" stroke="#1A1A1A" stroke-width="1.2"/>
<path d="M114.248 214.397L168.266 184.823L221.796 215.272L221.309 275.26L167.291 304.835L113.761 274.386L114.248 214.397Z" stroke="#1A1A1A" stroke-width="1.2"/>
<path d="M222.002 215.274L276.02 185.699L329.55 216.148L329.062 276.136L275.044 305.711L221.514 275.262L222.002 215.274Z" stroke="#1A1A1A" stroke-width="1.2"/>
<path d="M329.756 216.149L383.773 186.575L437.304 217.023L436.816 277.012L382.798 306.587L329.268 276.138L329.756 216.149Z" stroke="#1A1A1A" stroke-width="1.2"/>
<path d="M437.509 217.025L491.527 187.451L545.057 217.899L544.57 277.888L490.552 307.463L437.022 277.014L437.509 217.025Z" stroke="#1A1A1A" stroke-width="1.2"/>
<path d="M545.263 217.901L599.281 188.327L652.811 218.775L652.323 278.764L598.305 308.339L544.775 277.89L545.263 217.901Z" stroke="#1A1A1A" stroke-width="1.2"/>
<path d="M653.017 218.777L707.035 189.202L760.565 219.651L760.078 279.64L706.06 309.214L652.53 278.765L653.017 218.777Z" stroke="#1A1A1A" stroke-width="1.2"/>
<path d="M760.771 219.653L814.789 190.078L868.319 220.527L867.831 280.516L813.813 310.09L760.283 279.642L760.771 219.653Z" stroke="#1A1A1A" stroke-width="1.2"/>
<path d="M868.062 220.525L922.08 190.95L975.61 221.399L975.123 281.388L921.105 310.962L867.575 280.514L868.062 220.525Z" stroke="#1A1A1A" stroke-width="1.2"/>
<path d="M-48.689 301.684L5.3289 272.109L58.8589 302.558L58.3713 362.547L4.35338 392.121L-49.1767 361.672L-48.689 301.684Z" stroke="#1A1A1A" stroke-width="1.2"/>
<path d="M59.0645 302.56L113.082 272.985L166.612 303.434L166.125 363.422L112.107 392.997L58.5769 362.548L59.0645 302.56Z" stroke="#1A1A1A" stroke-width="1.2"/>
<path d="M166.818 303.436L220.836 273.861L274.366 304.31L273.879 364.298L219.861 393.873L166.331 363.424L166.818 303.436Z" stroke="#1A1A1A" stroke-width="1.2"/>
<path d="M274.572 304.311L328.59 274.737L382.12 305.186L381.632 365.174L327.614 394.749L274.084 364.3L274.572 304.311Z" stroke="#1A1A1A" stroke-width="1.2"/>
<path d="M382.325 305.187L436.343 275.613L489.873 306.062L489.386 366.05L435.368 395.625L381.838 365.176L382.325 305.187Z" stroke="#1A1A1A" stroke-width="1.2"/>
<path d="M490.079 306.063L544.097 276.489L597.627 306.938L597.139 366.926L543.121 396.501L489.591 366.052L490.079 306.063Z" stroke="#1A1A1A" stroke-width="1.2"/>
<path d="M597.834 306.939L651.851 277.364L705.382 307.813L704.894 367.802L650.876 397.376L597.346 366.927L597.834 306.939Z" stroke="#1A1A1A" stroke-width="1.2"/>
<path d="M705.587 307.815L759.605 278.24L813.135 308.689L812.648 368.678L758.63 398.252L705.1 367.803L705.587 307.815Z" stroke="#1A1A1A" stroke-width="1.2"/>
<path d="M-103.873 389.846L-49.8548 360.271L3.67523 390.72L3.18761 450.709L-50.8303 480.283L-104.36 449.834L-103.873 389.846Z" stroke="#1A1A1A" stroke-width="1.2"/>
<path d="M3.88078 390.721L57.8987 361.147L111.429 391.595L110.941 451.584L56.9232 481.159L3.39316 450.71L3.88078 390.721Z" stroke="#1A1A1A" stroke-width="1.2"/>
<path d="M111.634 391.597L165.652 362.023L219.182 392.472L218.695 452.46L164.677 482.035L111.147 451.586L111.634 391.597Z" stroke="#1A1A1A" stroke-width="1.2"/>
<path d="M219.388 392.473L273.406 362.899L326.936 393.348L326.448 453.336L272.431 482.911L218.9 452.462L219.388 392.473Z" stroke="#1A1A1A" stroke-width="1.2"/>
<path d="M327.142 393.349L381.16 363.775L434.69 394.223L434.202 454.212L380.184 483.787L326.654 453.338L327.142 393.349Z" stroke="#1A1A1A" stroke-width="1.2"/>
<path d="M434.895 394.225L488.913 364.65L542.443 395.099L541.956 455.088L487.938 484.662L434.408 454.214L434.895 394.225Z" stroke="#1A1A1A" stroke-width="1.2"/>
<path d="M542.65 395.101L596.668 365.526L650.198 395.975L649.71 455.964L595.692 485.538L542.162 455.09L542.65 395.101Z" stroke="#1A1A1A" stroke-width="1.2"/>
<path d="M650.403 395.977L704.421 366.402L757.951 396.851L757.464 456.84L703.446 486.414L649.916 455.966L650.403 395.977Z" stroke="#1A1A1A" stroke-width="1.2"/>
<path d="M-51.3028 478.884L2.71513 449.309L56.2452 479.758L55.7576 539.746L1.73961 569.321L-51.7904 538.872L-51.3028 478.884Z" stroke="#1A1A1A" stroke-width="1.2"/>
<path d="M56.4507 479.76L110.469 450.185L163.999 480.634L163.511 540.623L109.493 570.197L55.9631 539.748L56.4507 479.76Z" stroke="#1A1A1A" stroke-width="1.2"/>
<path d="M164.204 480.635L218.222 451.061L271.752 481.51L271.265 541.498L217.247 571.073L163.717 540.624L164.204 480.635Z" stroke="#1A1A1A" stroke-width="1.2"/>
<path d="M271.958 481.511L325.976 451.937L379.506 482.386L379.018 542.374L325 571.949L271.47 541.5L271.958 481.511Z" stroke="#1A1A1A" stroke-width="1.2"/>
<path d="M379.712 482.387L433.73 452.812L487.26 483.261L486.772 543.25L432.754 572.824L379.224 542.376L379.712 482.387Z" stroke="#1A1A1A" stroke-width="1.2"/>
<path d="M487.466 483.263L541.484 453.688L595.014 484.137L594.526 544.126L540.508 573.7L486.978 543.252L487.466 483.263Z" stroke="#1A1A1A" stroke-width="1.2"/>
<path d="M595.22 484.139L649.238 454.564L702.768 485.013L702.28 545.001L648.262 574.576L594.732 544.127L595.22 484.139Z" stroke="#1A1A1A" stroke-width="1.2"/>
<path d="M-106.487 567.045L-52.4686 537.471L1.06146 567.92L0.57384 627.908L-53.4441 657.483L-106.974 627.034L-106.487 567.045Z" stroke="#1A1A1A" stroke-width="1.2"/>
<path d="M1.26713 567.921L55.2851 538.347L108.815 568.796L108.328 628.784L54.3096 658.359L0.779516 627.91L1.26713 567.921Z" stroke="#1A1A1A" stroke-width="1.2"/>
<path d="M109.021 568.797L163.039 539.223L216.569 569.672L216.081 629.66L162.063 659.235L108.533 628.786L109.021 568.797Z" stroke="#1A1A1A" stroke-width="1.2"/>
<path d="M216.774 569.673L270.792 540.099L324.322 570.548L323.835 630.536L269.817 660.111L216.287 629.662L216.774 569.673Z" stroke="#1A1A1A" stroke-width="1.2"/>
<path d="M324.528 570.549L378.546 540.975L432.076 571.423L431.588 631.412L377.57 660.987L324.04 630.538L324.528 570.549Z" stroke="#1A1A1A" stroke-width="1.2"/>
<path d="M432.283 571.425L486.3 541.851L539.831 572.299L539.343 632.288L485.325 661.863L431.795 631.414L432.283 571.425Z" stroke="#1A1A1A" stroke-width="1.2"/>
<path d="M540.036 572.301L594.054 542.726L647.584 573.175L647.097 633.164L593.079 662.738L539.549 632.29L540.036 572.301Z" stroke="#1A1A1A" stroke-width="1.2"/>
<path d="M-53.9166 656.083L0.101362 626.509L53.6314 656.958L53.1438 716.946L-0.874156 746.521L-54.4042 716.072L-53.9166 656.083Z" stroke="#1A1A1A" stroke-width="1.2"/>
<path d="M53.8371 656.96L107.855 627.385L161.385 657.834L160.897 717.822L106.88 747.397L53.3495 716.948L53.8371 656.96Z" stroke="#1A1A1A" stroke-width="1.2"/>
<path d="M161.591 657.836L215.609 628.261L269.139 658.71L268.651 718.698L214.633 748.273L161.103 717.824L161.591 657.836Z" stroke="#1A1A1A" stroke-width="1.2"/>
<path d="M269.344 658.711L323.362 629.136L376.892 659.585L376.405 719.574L322.387 749.148L268.857 718.7L269.344 658.711Z" stroke="#1A1A1A" stroke-width="1.2"/>
<path d="M377.099 659.587L431.117 630.012L484.647 660.461L484.159 720.45L430.141 750.024L376.611 719.576L377.099 659.587Z" stroke="#1A1A1A" stroke-width="1.2"/>
<path d="M484.852 660.463L538.87 630.888L592.4 661.337L591.913 721.326L537.895 750.9L484.365 720.452L484.852 660.463Z" stroke="#1A1A1A" stroke-width="1.2"/>
<path d="M592.957 661.342L646.975 631.767L700.505 662.216L700.017 722.204L645.999 751.779L592.469 721.33L592.957 661.342Z" stroke="#1A1A1A" stroke-width="1.2"/>
<path d="M700.711 662.217L754.729 632.643L808.259 663.092L807.771 723.08L753.753 752.655L700.223 722.206L700.711 662.217Z" stroke="#1A1A1A" stroke-width="1.2"/>
<path d="M808.464 663.093L862.482 633.519L916.012 663.968L915.525 723.956L861.507 753.531L807.977 723.082L808.464 663.093Z" stroke="#1A1A1A" stroke-width="1.2"/>
<path d="M916.219 663.969L970.237 634.394L1023.77 664.843L1023.28 724.832L969.261 754.407L915.731 723.958L916.219 663.969Z" stroke="#1A1A1A" stroke-width="1.2"/>
<path d="M-1.34664 745.121L52.6713 715.547L106.201 745.996L105.714 805.984L51.6958 835.559L-1.83425 805.11L-1.34664 745.121Z" stroke="#1A1A1A" stroke-width="1.2"/>
<path d="M106.407 745.997L160.425 716.423L213.955 746.871L213.467 806.86L159.449 836.435L105.919 805.986L106.407 745.997Z" stroke="#1A1A1A" stroke-width="1.2"/>
<path d="M214.161 746.873L268.179 717.299L321.709 747.748L321.221 807.736L267.203 837.311L213.673 806.862L214.161 746.873Z" stroke="#1A1A1A" stroke-width="1.2"/>
<path d="M321.915 747.749L375.933 718.175L429.463 748.624L428.975 808.612L374.958 838.187L321.427 807.738L321.915 747.749Z" stroke="#1A1A1A" stroke-width="1.2"/>
<path d="M429.669 748.625L483.687 719.05L537.217 749.499L536.729 809.488L482.711 839.063L429.181 808.614L429.669 748.625Z" stroke="#1A1A1A" stroke-width="1.2"/>
<path d="M-56.5304 833.284L-2.51241 803.709L51.0176 834.158L50.53 894.146L-3.48793 923.721L-57.018 893.272L-56.5304 833.284Z" stroke="#1A1A1A" stroke-width="1.2"/>
<path d="M51.2233 834.159L105.241 804.585L158.771 835.033L158.284 895.022L104.266 924.597L50.7357 894.148L51.2233 834.159Z" stroke="#1A1A1A" stroke-width="1.2"/>
<path d="M158.977 835.035L212.995 805.46L266.525 835.909L266.037 895.898L212.019 925.472L158.489 895.024L158.977 835.035Z" stroke="#1A1A1A" stroke-width="1.2"/>
<path d="M266.731 835.911L320.749 806.336L374.279 836.785L373.792 896.774L319.774 926.348L266.244 895.9L266.731 835.911Z" stroke="#1A1A1A" stroke-width="1.2"/>
<path d="M374.485 836.787L428.503 807.212L482.033 837.661L481.545 897.65L427.527 927.224L373.997 896.776L374.485 836.787Z" stroke="#1A1A1A" stroke-width="1.2"/>
<path d="M482.583 838.479L536.601 808.904L590.131 839.353L589.643 899.341L535.625 928.916L482.095 898.467L482.583 838.479Z" stroke="#1A1A1A" stroke-width="1.2"/>
<path d="M590.336 839.354L644.354 809.78L697.884 840.229L697.397 900.217L643.379 929.792L589.849 899.343L590.336 839.354Z" stroke="#1A1A1A" stroke-width="1.2"/>
<path d="M698.091 840.231L752.109 810.656L805.639 841.105L805.151 901.093L751.133 930.668L697.603 900.219L698.091 840.231Z" stroke="#1A1A1A" stroke-width="1.2"/>
<path d="M805.845 841.106L859.863 811.532L913.393 841.98L912.905 901.969L858.887 931.544L805.357 901.095L805.845 841.106Z" stroke="#1A1A1A" stroke-width="1.2"/>
<path d="M913.598 841.982L967.616 812.407L1021.15 842.856L1020.66 902.845L966.641 932.419L913.111 901.971L913.598 841.982Z" stroke="#1A1A1A" stroke-width="1.2"/>
<path d="M924.032 132.509L977.877 103.603L1031.25 133.381L1030.77 192.01L976.923 220.917L923.555 191.139L924.032 132.509Z" stroke="#1A1A1A" stroke-width="1.2"/>
<path d="M975.364 221.397L1029.38 191.823L1082.91 222.272L1082.42 282.26L1028.41 311.835L974.876 281.386L975.364 221.397Z" stroke="#1A1A1A" stroke-width="1.2"/>
<path d="M813.692 308.693L867.71 279.119L921.24 309.568L920.752 369.556L866.734 399.131L813.204 368.682L813.692 308.693Z" stroke="#1A1A1A" stroke-width="1.2"/>
<path d="M921.445 309.569L975.463 279.995L1028.99 310.444L1028.51 370.432L974.488 400.007L920.958 369.558L921.445 309.569Z" stroke="#1A1A1A" stroke-width="1.2"/>
<path d="M758.501 397.668L812.519 368.094L866.049 398.543L865.562 458.531L811.544 488.106L758.014 457.657L758.501 397.668Z" stroke="#1A1A1A" stroke-width="1.2"/>
<path d="M866.255 398.544L920.273 368.97L973.803 399.418L973.315 459.407L919.297 488.982L865.767 458.533L866.255 398.544Z" stroke="#1A1A1A" stroke-width="1.2"/>
<path d="M974.009 399.42L1028.03 369.846L1081.56 400.294L1081.07 460.283L1027.05 489.858L973.521 459.409L974.009 399.42Z" stroke="#1A1A1A" stroke-width="1.2"/>
<path d="M703.311 486.643L757.329 457.069L810.859 487.518L810.371 547.506L756.353 577.081L702.823 546.632L703.311 486.643Z" stroke="#1A1A1A" stroke-width="1.2"/>
<path d="M811.065 487.519L865.083 457.945L918.613 488.394L918.125 548.382L864.107 577.957L810.577 547.508L811.065 487.519Z" stroke="#1A1A1A" stroke-width="1.2"/>
<path d="M918.818 488.395L972.836 458.821L1026.37 489.27L1025.88 549.258L971.861 578.833L918.331 548.384L918.818 488.395Z" stroke="#1A1A1A" stroke-width="1.2"/>
<path d="M648.134 573.992L702.152 544.418L755.682 574.866L755.194 634.855L701.177 664.43L647.646 633.981L648.134 573.992Z" stroke="#1A1A1A" stroke-width="1.2"/>
<path d="M755.888 574.868L809.906 545.294L863.436 575.742L862.948 635.731L808.93 665.306L755.4 634.857L755.888 574.868Z" stroke="#1A1A1A" stroke-width="1.2"/>
<path d="M863.641 575.744L917.659 546.17L971.189 576.619L970.702 636.607L916.684 666.182L863.154 635.733L863.641 575.744Z" stroke="#1A1A1A" stroke-width="1.2"/>
<path d="M971.396 576.62L1025.41 547.045L1078.94 577.494L1078.46 637.483L1024.44 667.057L970.908 636.609L971.396 576.62Z" stroke="#1A1A1A" stroke-width="1.2"/>
<path d="M536.954 750.31L590.972 720.735L644.502 751.184L644.014 811.173L589.996 840.747L536.466 810.299L536.954 750.31Z" stroke="#1A1A1A" stroke-width="1.2"/>
<path d="M644.707 751.186L698.725 721.611L752.255 752.06L751.768 812.049L697.75 841.623L644.22 811.175L644.707 751.186Z" stroke="#1A1A1A" stroke-width="1.2"/>
<path d="M752.461 752.062L806.479 722.487L860.009 752.936L859.521 812.924L805.503 842.499L751.973 812.05L752.461 752.062Z" stroke="#1A1A1A" stroke-width="1.2"/>
<path d="M860.215 752.938L914.233 723.363L967.763 753.812L967.276 813.8L913.258 843.375L859.728 812.926L860.215 752.938Z" stroke="#1A1A1A" stroke-width="1.2"/>
<path d="M967.969 753.814L1021.99 724.239L1075.52 754.688L1075.03 814.676L1021.01 844.251L967.481 813.802L967.969 753.814Z" stroke="#1A1A1A" stroke-width="1.2"/>
</g>
</g>
<defs>
<radialGradient id="paint0_radial_6_1437" cx="0" cy="0" r="1" gradientUnits="userSpaceOnUse" gradientTransform="translate(495.678 404.749) rotate(90) scale(545.466)">
<stop/>
<stop offset="1" stop-opacity="0"/>
</radialGradient>
</defs>
</svg>
